<?xml version="1.0" encoding="utf-8"?>
<!-- Generator: Adobe Illustrator 21.0.0, SVG Export Plug-In . SVG Version: 6.00 Build 0)  -->
<svg version="1.1" id="图层_1" xmlns="http://www.w3.org/2000/svg" xmlns:xlink="http://www.w3.org/1999/xlink" x="0px" y="0px"
	 viewBox="0 0 24 24" style="enable-background:new 0 0 24 24;" xml:space="preserve">
<style type="text/css">
	.st0{fill:#88BCFC;}
</style>
<g id="用户">
	<g>
		<path class="st0" d="M12,12.2c-3.2,0-5.9-2.6-5.9-5.9S8.8,0.5,12,0.5s5.9,2.6,5.9,5.9S15.2,12.2,12,12.2z M12,2
			C9.6,2,7.6,4,7.6,6.4s2,4.4,4.4,4.4s4.4-2,4.4-4.4S14.4,2,12,2z"/>
	</g>
	<g>
		<path class="st0" d="M23.1,21.8h-1.5c0-5.3-4.3-9.6-9.6-9.6s-9.6,4.3-9.6,9.6H0.9c0-6.1,5-11.1,11.1-11.1
			C18.1,10.6,23.1,15.6,23.1,21.8z"/>
	</g>
</g>
</svg>
