<?xml version="1.0" encoding="utf-8"?>
<!-- Generator: Adobe Illustrator 21.0.0, SVG Export Plug-In . SVG Version: 6.00 Build 0)  -->
<svg version="1.1" id="图层_1" xmlns="http://www.w3.org/2000/svg" xmlns:xlink="http://www.w3.org/1999/xlink" x="0px" y="0px"
	 viewBox="0 0 20 20" style="enable-background:new 0 0 20 20;" xml:space="preserve">
<style type="text/css">
	.st0{fill:#FFFFFF;}
</style>
<path class="st0" d="M18.8,6.3l-10,9.9c-0.3,0.2-0.7,0.2-0.9,0L7.7,16h0l-0.2-0.2l-0.9-0.9c0,0,0,0,0,0l-4.3-4.3
	c-0.2-0.2-0.3-0.6,0-0.9c0,0,0,0,0,0l1.4-1.4C3.8,8,4.2,8,4.4,8.3l3.9,3.9L16.5,4c0.3-0.2,0.7-0.2,0.9,0l1.4,1.4
	C19,5.6,19,6,18.8,6.3C18.8,6.3,18.8,6.3,18.8,6.3L18.8,6.3z"/>
</svg>
